HIERARCHY
ROOT Hips
{
    OFFSET 0.0 0.0 0.0
    CHANNELS 6 Xposition Yposition Zposition Zrotation Xrotation Yrotation
    JOINT LeftHipJoint
    {
        OFFSET 0.1 0.0 0.0
        CHANNELS 3 Zrotation Xrotation Yrotation
        JOINT LeftUpLeg
        {
            OFFSET 124.9219290205032 0.0 0.0
            CHANNELS 3 Zrotation Xrotation Yrotation
            JOINT LeftLeg
            {
                OFFSET 0.0 0.0 -422.3272766653726
                CHANNELS 3 Zrotation Xrotation Yrotation
                JOINT LeftFoot
                {
                    OFFSET 0.0 0.0 -396.5599156544275
                    CHANNELS 3 Zrotation Xrotation Yrotation
                    End Site
                    {
                        OFFSET 0.0 -0.1 0.0
                    }
                }
            }
        }
    }
    JOINT LowerBack
    {
        OFFSET 0.0 0.0 0.1
        CHANNELS 3 Zrotation Xrotation Yrotation
        JOINT Spine
        {
            OFFSET 0.0 0.0 214.17725745098295
            CHANNELS 3 Zrotation Xrotation Yrotation
            JOINT Spine1
            {
                OFFSET 0.0 0.0 250.33303891275483
                CHANNELS 3 Zrotation Xrotation Yrotation
                JOINT LeftShoulder
                {
                    OFFSET 0.1 0.0 0.0
                    CHANNELS 3 Zrotation Xrotation Yrotation
                    JOINT LeftArm
                    {
                        OFFSET 136.31944525597208 0.0 0.0
                        CHANNELS 3 Zrotation Xrotation Yrotation
                        JOINT LeftForeArm
                        {
                            OFFSET 264.5761596239965 0.0 0.0
                            CHANNELS 3 Zrotation Xrotation Yrotation
                            JOINT LeftHand
                            {
                                OFFSET 244.37271456328122 0.0 0.0
                                CHANNELS 3 Zrotation Xrotation Yrotation
                                End Site
                                {
                                    OFFSET 0.1 0.0 0.0
                                }
                            }
                        }
                    }
                }
                JOINT Neck
                {
                    OFFSET 0.0 0.0 0.1
                    CHANNELS 3 Zrotation Xrotation Yrotation
                    JOINT Neck1
                    {
                        OFFSET 0.0 0.0 102.93134191934999
                        CHANNELS 3 Zrotation Xrotation Yrotation
                        End Site
                        {
                            OFFSET 0.0 0.0 116.06645164301554
                        }
                    }
                }
                JOINT RightShoulder
                {
                    OFFSET -0.1 0.0 0.0
                    CHANNELS 3 Zrotation Xrotation Yrotation
                    JOINT RightArm
                    {
                        OFFSET -136.31944525597208 0.0 0.0
                        CHANNELS 3 Zrotation Xrotation Yrotation
                        JOINT RightForeArm
                        {
                            OFFSET -264.5761596239965 0.0 0.0
                            CHANNELS 3 Zrotation Xrotation Yrotation
                            JOINT RightHand
                            {
                                OFFSET -244.37271456328122 0.0 0.0
                                CHANNELS 3 Zrotation Xrotation Yrotation
                                End Site
                                {
                                    OFFSET -0.1 0.0 0.0
                                }
                            }
                        }
                    }
                }
            }
        }
    }
    JOINT RightHipJoint
    {
        OFFSET -0.1 0.0 0.0
        CHANNELS 3 Zrotation Xrotation Yrotation
        JOINT RightUpLeg
        {
            OFFSET -124.9219290205032 0.0 0.0
            CHANNELS 3 Zrotation Xrotation Yrotation
            JOINT RightLeg
            {
                OFFSET 0.0 0.0 -422.3272766653726
                CHANNELS 3 Zrotation Xrotation Yrotation
                JOINT RightFoot
                {
                    OFFSET 0.0 0.0 -396.5599156544275
                    CHANNELS 3 Zrotation Xrotation Yrotation
                    End Site
                    {
                        OFFSET 0.0 -0.1 0.0
                    }
                }
            }
        }
    }
}
MOTION
Frames: 8
Frame Time: 0.03333333333333333
0.0 0.0 813.5480242507865 22.175700784311886 -5.987465140879561 5.9042517440651645 0.0 0.0 -1.987846675914698e-16 -0.21033811650000164 -1.6243187034638817 -0.6225788750577027 2.5155593409153356 20.28697532669695 0.7396207921943174 -3.1805546814635168e-15 0.0 0.0 0.0 0.0 -1.987846675914698e-16 0.6328715031330554 4.8650922852268526 0.8769497651986937 -4.4556533631796205 -5.2159808253330047e-17 1.3407823158765718e-15 0.0 0.0 0.0 -13.971568490731638 -36.00775273778676 50.23439046821604 -139.38814385656676 -9.7240585530675e-15 1.0380811475607516e-14 3.1805546814635164e-15 -3.1805546814635164e-15 8.827812596100317e-32 0.0 0.0 0.0 7.592308761350077 -1.8168117062631 -5.8575598155683215 0.0 0.0 0.0 16.208012449756083 16.99697885022703 -81.58951766558205 34.89193099371369 -9.579523668593118e-15 1.3435256005467701e-15 -6.3611093629270335e-15 -8.827812596100317e-32 1.5902773407317584e-15 0.0 0.0 -1.987846675914698e-16 -0.9178781806445179 -7.031260742706631 -6.270474459547784 0.7508725674733738 32.404933804059254 1.254251441450299 0.0 0.0 0.0
0.0 0.0 813.5480242507865 22.137762345605996 -5.946100990277234 6.002424364138041 3.1805546814635164e-15 -9.93923337957349e-17 -1.9878466759146977e-16 -0.22268635841351642 -1.6931677263478517 -0.6716054630083446 2.5389447312975078 20.280370428730958 0.6061287495484418 0.0 0.0 -3.975693351829396e-16 3.1805546814635164e-15 -9.93923337957349e-17 -1.9878466759146977e-16 0.6463533471713248 4.892666276910419 0.7656131298393838 -4.454510438991106 -6.171483267507535e-16 5.230686656061798e-16 -3.1805546814635168e-15 1.987846675914698e-16 1.987846675914698e-16 -14.187220914375372 -36.126106332069405 50.11344989753339 -139.36901708616733 1.1930834343245647e-14 -4.41701722687405e-15 -1.7655625192200634e-31 3.1805546814635164e-15 6.361109362927033e-15 -3.1805546814635168e-15 1.987846675914698e-16 1.987846675914698e-16 7.549749197731561 -1.7873219349198297 -5.908078009804825 -3.1805546814635168e-15 1.987846675914698e-16 1.987846675914698e-16 16.25608909210538 16.952615109717396 -81.57666163449132 35.02266908012841 -1.0218616020144759e-14 9.894364470163344e-15 0.0 0.0 -7.951386703658792e-16 3.1805546814635164e-15 -9.93923337957349e-17 -1.9878466759146977e-16 -0.9537024693717718 -7.192493040890116 -6.442927080398959 0.7204708377614226 32.579060753346276 1.367557380130937 3.1805546814635168e-15 -1.987846675914698e-16 5.517382872562698e-33
0.0 0.0 813.5480242507865 22.088443726703606 -6.0787831978287725 6.031831249919945 0.0 0.0 -1.987846675914698e-16 -0.19329665526970322 -1.4465380428470471 -0.6277388120010203 2.5761793545610034 20.099117334135435 0.4422088510957086 0.0 0.0 7.951386703658792e-16 0.0 0.0 -1.987846675914698e-16 0.6681077707548664 4.974052803492361 0.7269461191643432 -4.483939124663768 -3.389419349965997e-16 -1.5052965969818683e-15 0.0 0.0 -2.981770013872047e-16 -14.284894943721996 -36.16587415576792 50.04505207366756 -139.31329482221625 0.0 -0.0 0.0 0.0 0.0 0.0 0.0 -2.981770013872047e-16 7.575891686223551 -1.6880554189855428 -5.983493959130754 0.0 0.0 -2.981770013872047e-16 16.403698682195746 17.056359789493165 -81.58639416345424 35.108158606283645 1.9185477487374853e-15 6.064889682667963e-15 0.0 0.0 1.5902773407317584e-15 0.0 0.0 -1.987846675914698e-16 -0.9645876314733279 -7.155435942540418 -6.500904340833509 0.7690423870123098 32.79556037899546 1.4229302907033412 0.0 0.0 7.951386703658792e-16
0.0 0.0 813.5480242507865 22.008349454414535 -6.068791678478934 6.0680761156893315 0.0 0.0 0.0 -0.1865371896540166 -1.39533902832176 -0.5888950906396351 2.5593285071009113 19.865012376303948 0.36334151876060483 -3.1805546814635168e-15 -1.5902773407317584e-15 -7.951386703658792e-16 0.0 0.0 0.0 0.6703697229656944 4.988039705568959 0.6204615675629652 -4.526210357956956 9.970729487778633e-16 -6.006640133267499e-17 0.0 0.0 -1.987846675914698e-16 -14.231293198131828 -36.33628801939688 50.019684814392996 -139.15503829589645 1.5219946221172098e-15 -1.4142209657823493e-14 0.0 0.0 6.3611093629270335e-15 0.0 0.0 -1.987846675914698e-16 7.679563617997021 -1.6177096964003608 -5.943072602432419 0.0 0.0 -1.987846675914698e-16 16.414457480740616 17.213597350422965 -81.51903765183944 35.2871143560928 4.9589599055457715e-15 5.097877701954701e-15 0.0 0.0 -7.951386703658792e-16 0.0 0.0 0.0 -0.9721143805686134 -7.206702396060415 -6.508606887593215 0.7641181707834638 32.68452597979258 1.3311438581120276 0.0 0.0 -7.951386703658792e-16
0.0 0.0 813.5480242507865 21.994849668636046 -6.154652908625933 6.088472642444216 0.0 0.0 0.0 -0.1633121638359695 -1.2200211987093015 -0.5859991737376962 2.5603830696191343 19.824889909365567 0.317115036891328 0.0 0.0 -7.951386703658792e-16 0.0 0.0 0.0 0.6785786589661136 5.038284719669931 0.6019431816123285 -4.491336888456074 5.764229215337753e-16 5.199477017831669e-16 0.0 0.0 9.93923337957349e-17 -14.3984073651034 -36.41117640875398 49.98681213940958 -139.19888823967605 -5.962131726621965e-15 2.217362758216557e-15 0.0 0.0 1.2722218725854067e-14 0.0 0.0 9.93923337957349e-17 7.698203921961914 -1.437847082308338 -5.900781549368806 0.0 0.0 9.93923337957349e-17 16.635760646133413 17.089437164186243 -81.56257130324579 34.80782022913112 -1.1007491310528334e-14 -3.2159291210747555e-15 2.2069531490250793e-32 3.1805546814635168e-15 -7.951386703658792e-16 0.0 0.0 0.0 -0.9587690912799526 -7.093548247130712 -6.5132909709566515 0.7702865101974201 32.68988631278678 1.2758175967269383 0.0 0.0 0.0
0.0 0.0 813.5480242507865 21.983712249736584 -6.186777271080243 6.150474012398792 0.0 0.0 0.0 -0.16176014469625943 -1.2119528552260381 -0.6405597434103518 2.544845039489448 19.90227842532137 0.3202540803901046 0.0 0.0 7.951386703658792e-16 0.0 0.0 0.0 0.6817076063750596 5.072834711347942 0.5562965378177963 -4.509634257468256 1.246531174844789e-15 -1.3434895891086834e-15 0.0 0.0 -4.969616689786745e-17 -14.425566181231108 -36.52656177898172 50.006551914756315 -139.09674866213837 -1.4142982025746627e-14 -1.5148006651033833e-15 3.1805546814635168e-15 0.0 0.0 0.0 0.0 -4.969616689786745e-17 7.791628602337596 -1.3710567770420958 -5.913757344621078 0.0 0.0 -4.969616689786745e-17 16.676638334891678 16.944314178129822 -81.5252591485299 34.663261974059424 -3.509892986405678e-15 -5.70579815805462e-16 0.0 0.0 7.951386703658792e-16 0.0 0.0 0.0 -0.9474238415869747 -7.025443836356868 -6.625930931556629 0.6879133585165439 32.75689556962506 1.2803355871312119 0.0 0.0 -7.951386703658792e-16
0.0 0.0 813.5480242507865 22.052296373482616 -6.239060914149102 6.180973646110447 -2.069018577211012e-33 1.987846675914698e-16 1.1927080055488188e-15 -0.14437142769016265 -1.0789965607592304 -0.7041379871974605 2.504679991806341 19.717741195128212 0.3571926686218483 -3.1805546814635176e-15 5.517382872562698e-32 -1.9878466759146984e-15 -2.069018577211012e-33 1.987846675914698e-16 1.1927080055488188e-15 0.6872488993851814 5.097776884483165 0.5777276950730849 -4.563966588837279 2.045633696785315e-16 -1.410551413252345e-16 0.0 0.0 -2.981770013872047e-16 -14.389812844144867 -36.711660209592644 50.0037569758225 -139.12297756011307 -1.0403285255456425e-14 -9.700011212838511e-15 0.0 0.0 0.0 0.0 0.0 -2.981770013872047e-16 7.864973310137381 -1.1975159800582211 -5.908899643942122 0.0 0.0 -2.981770013872047e-16 16.67286167983039 16.796096336952477 -81.47073245867018 34.50907453720798 2.1513213171785212e-15 1.7649208739936825e-14 0.0 0.0 -3.1805546814635168e-15 -2.069018577211012e-33 1.987846675914698e-16 1.1927080055488188e-15 -0.943423049008934 -6.973977952619807 -6.715863149903373 0.6456207856290063 32.78257575118886 1.3640577620238092 -3.1805546814635168e-15 -3.1805546814635168e-15 -8.827812596100317e-32
0.0 0.0 813.5480242507865 22.1639959672918 -6.25447675775841 6.235289491822501 0.0 0.0 -9.93923337957349e-16 -0.13190674153451604 -0.9805622371604035 -0.7675957296221121 2.481449092316952 19.591046869118983 0.31672542885675214 0.0 0.0 -3.975693351829396e-16 0.0 0.0 -9.93923337957349e-16 0.690467455749732 5.0896305802160136 0.5424645310314811 -4.580283724970553 5.998493911477176e-16 -7.548271710885587e-17 0.0 0.0 -2.981770013872047e-16 -14.363097016660234 -36.836325025258304 50.03095902681012 -139.17730100152755 -2.218485890226625e-15 -5.961713904741098e-15 3.1805546814635168e-15 0.0 0.0 0.0 0.0 -2.981770013872047e-16 7.833567788568927 -1.0167799729734341 -5.95916079244435 0.0 0.0 -2.981770013872047e-16 16.51401957797923 16.75650665311824 -81.40727220615922 34.58773003638283 -4.005890387864051e-16 2.0111604900981517e-14 -1.9862578341225716e-31 3.1805546814635176e-15 7.156248033292914e-15 0.0 0.0 -9.93923337957349e-16 -0.9468919833156859 -6.955562028146279 -6.799537525424048 0.6218618004607294 32.757547480590276 1.3952539494866065 0.0 0.0 -7.951386703658792e-16
